<?xml version="1.0" encoding="UTF-8" standalone="no"?>
<!-- Generator: Adobe Illustrator 22.0.1, SVG Export Plug-In . SVG Version: 6.00 Build 0)  -->

<svg
   version="1.1"
   x="0px"
   y="0px"
   viewBox="0 0 2272 1872"
   style="enable-background:new 0 0 2272 1872;"
   xml:space="preserve"
   id="svg58"
   sodipodi:docname="chalkboard.svg"
   inkscape:version="1.3.2 (091e20e, 2023-11-25)"
   xmlns:inkscape="http://www.inkscape.org/namespaces/inkscape"
   xmlns:sodipodi="http://sodipodi.sourceforge.net/DTD/sodipodi-0.dtd"
   xmlns="http://www.w3.org/2000/svg"
   xmlns:svg="http://www.w3.org/2000/svg"><defs
   id="defs58" /><sodipodi:namedview
   id="namedview58"
   pagecolor="#ffffff"
   bordercolor="#000000"
   borderopacity="0.25"
   inkscape:showpageshadow="2"
   inkscape:pageopacity="0.0"
   inkscape:pagecheckerboard="0"
   inkscape:deskcolor="#d1d1d1"
   inkscape:zoom="0.12606838"
   inkscape:cx="1134.3051"
   inkscape:cy="936"
   inkscape:window-width="1312"
   inkscape:window-height="449"
   inkscape:window-x="54"
   inkscape:window-y="38"
   inkscape:window-maximized="0"
   inkscape:current-layer="svg58" />
<style
   type="text/css"
   id="style1">
	.st0{fill:#CCBBB8;}
	.st1{fill:#996B4A;}
	.st2{fill:#8C5F41;}
	.st3{fill:#725039;}
	.st4{fill:#B5815E;}
	.st5{fill:#A38986;}
	.st6{fill:#3D763F;}
	.st7{fill:#3B6238;}
	.st8{fill:#3C6338;}
	.st9{fill:#3C6439;}
	.st10{fill:#3D6539;}
	.st11{fill:#3D663A;}
	.st12{fill:#3E673A;}
	.st13{fill:#3E683B;}
	.st14{fill:#3F693B;}
	.st15{fill:#3F6A3B;}
	.st16{fill:#406B3C;}
	.st17{fill:#406C3C;}
	.st18{fill:#416D3D;}
	.st19{fill:#416E3D;}
	.st20{fill:#426F3E;}
	.st21{fill:#42703E;}
	.st22{fill:#43713E;}
	.st23{fill:#43723F;}
	.st24{fill:#44733F;}
	.st25{fill:#447340;}
	.st26{fill:#457440;}
	.st27{fill:#457541;}
	.st28{fill:#467641;}
	.st29{fill:#467741;}
	.st30{fill:#477842;}
	.st31{fill:#477942;}
	.st32{fill:#487A43;}
	.st33{fill:#487B43;}
	.st34{fill:#497C44;}
	.st35{fill:#497D44;}
	.st36{fill:#4A7E44;}
	.st37{fill:#4A7F45;}
	.st38{fill:#4B8045;}
	.st39{fill:#4B8146;}
	.st40{fill:#4C8246;}
	.st41{fill:#4C8347;}
	.st42{fill:#4D8447;}
	.st43{fill:#7C7571;}
	.st44{fill:#635D5A;}
	.st45{fill:#AA9593;}
	.st46{fill:#35312F;}
	.st47{fill:#619E8F;}
	.st48{fill:#74BAA8;}
	.st49{fill:#93674A;}
</style>
<g
   id="vv">
	<g
   id="Layer_1_1_">
	</g>
	<g
   id="Layer_2">
	</g>
</g>
<g
   id="Layer_2_1_">
	<rect
   x="0"
   y="428.1"
   class="st0"
   width="2272"
   height="1443.9"
   id="rect1" />
	<g
   id="g58">
		<g
   id="g9">
			<rect
   y="1635.5"
   class="st1"
   width="2272"
   height="236.5"
   id="rect2" />
			<g
   id="g8">
				<path
   class="st2"
   d="M78,1732.9c49.6-3.9,99.6-5,148.9-11.7c12.4-1.7,24.5-4.3,36.7-6.7c10.6-2.2,21.6-3.8,31.8-7.9      c8.4-3.4,14.1-11.3,8.5-20c-5.1-7.8-16.2-13-24.5-16.4c-20-8.3-43.7-10.3-65.1-10.7c-12.1-0.2-24.2,0.3-36.3,0.4      c-12.5,0.1-25.1,0-37.6,0.5c-28,1.2-55.8,2-83.8,1.8c-18.8-0.1-37.7,0.2-56.5,1.3v9.5c37.2-1.1,74.5,1.2,111.7,0.3      c11.8-0.3,23.7-1.2,35.5-1.3c11.2-0.2,22.4,0.1,33.6,0.1c22.7,0.1,45-0.1,67.5,3.5c9.6,1.5,19.4,3.7,28.2,7.9      c4.2,2,8.2,4.4,12,7.2c0.9,0.7,2.1,2.2,3.2,2.9c-0.2,0.1-0.4,0.2-0.6,0.3c-9,4.1-19.8,5.2-29.4,7c-11.3,2.1-22.5,4.6-33.8,6.2      c-45.6,6.7-92.2,7.4-138.1,10.8c-26.3,1.9-52.4,3.8-78.8,3.9c-3.7,0-7.4,0-11.1,0v14.1c1.1,0,2.1,0,3.2,0      C28.2,1736.1,53.1,1734.9,78,1732.9z"
   id="path2" />
				<path
   class="st2"
   d="M71.8,1698.3c-18.5,2.1-37.2,4.8-55.9,4.5c-5.3-0.1-10.7-0.5-16-0.9v12.5c5.3,0.3,10.7,0.6,16,0.6      c11.1,0.1,22-1.1,33-2.4c10.7-1.2,21.4-2.2,32-3.9c7.6-1.2,16.7-2.3,23.4-6.5c6-3.8,7.3-10.8,1.9-15.9      c-4.9-4.6-12.9-5.5-19.3-5.8c-10.9-0.5-21.9-0.1-32.8,0.3c-18.1,0.7-36.1,2-54.2,3.7v7.9c11.8-0.7,23.7-1.3,35.6-1.6      c9.5-0.3,18.9-0.4,28.4-0.3c8.5,0.1,17.3-0.2,25.8,0.8c2.6,0.3,4.9,1.2,7.3,2c-0.5,0.3-0.9,0.5-1.1,0.5      C88.3,1696.5,79.8,1697.4,71.8,1698.3z"
   id="path3" />
				<path
   class="st2"
   d="M400.4,1680.3c10.5,2.4,21,4.6,31.5,7.1c11.2,2.6,22.3,5.7,33.7,7.5c12.5,2,25,3.1,37.6,4.5      c12.6,1.5,25.2,3.4,37.8,4.6c25.9,2.4,51.3-1.2,77-3.3c25.7-2,50.8-5.1,76-10.6c24.7-5.3,49-11.8,73.6-17.5      c25-5.8,50.3-10.2,75.5-14.7c29.3-5.2,58.6-10,87.9-15.1c14.8-2.6,29.7-5.2,44.6-7.3H865.7c-0.8,0.1-1.6,0.3-2.4,0.4      c-25.6,4.4-51.3,8.7-76.8,13.8c-24.7,5-49,11.5-73.5,17.3c-24.2,5.8-48.7,11.2-73.5,13.7c-12.3,1.3-24.6,1.9-36.8,3.2      c-12.7,1.3-25.4,2.7-38.2,3.1c-24.9,0.7-49.8-3.9-74.5-6.3c-23.1-2.3-45.4-7.5-68.1-12c-38.6-7.7-80.3-14.3-115.4-33.3h-21.3      C319.5,1659.9,359.7,1671.1,400.4,1680.3z"
   id="path4" />
				<path
   class="st2"
   d="M417.4,1636.6c5,4.3,10.3,8.3,15.9,11.8c11.3,7,23.8,12.1,36.5,15.9c25.9,7.7,53.6,10.2,80.6,9.7      c31.2-0.5,62.3-7.2,93-12.2c31-5.1,61.8-11.3,92.7-16.7c15.7-2.8,31.2-6,46.7-9.7h-76.2c-18.5,3.5-36.9,7-55.5,10.3      c-30.1,5.2-60.6,11.7-91.1,14.1c-27.1,2.1-55.5,0.6-82-5.7c-14.8-3.5-29.1-8.8-42.4-16.1c-1.5-0.8-3-1.7-4.4-2.6h-15      C416.5,1635.8,416.9,1636.2,417.4,1636.6z"
   id="path5" />
				<path
   class="st2"
   d="M2103.5,1678.8c-28.9-2.9-57.9-7-86.9-8c-29.4-1-58.8-0.3-88.2-0.2c-58.3,0.3-116.6,1.7-174.6,7.4      c-28.7,2.8-57.4,3.8-86.1,5.7c-14.3,1-28.7-0.5-43-1.6c-14-1.1-27.9-1.3-41.9-1c-14,0.3-27.4-0.7-41.3-2.3      c-13.9-1.6-28.3-0.8-42.3-0.7c-28.6,0.3-57.1,0.7-85.7,0.1c-14.3-0.3-28.5-1-42.7-2.4c-13.8-1.4-27.3-3.6-41.3-3.4      c-28.4,0.3-57.3-0.8-85.6,1.1c-14,0.9-28,2.8-42,4c-14.2,1.2-28.3,1.1-42.5,0.9c-14.3-0.2-28.6-0.5-42.9-0.1      c-13.5,0.4-26.9,2.9-40.4,3.2c-13.9,0.3-27.7-0.1-41.6,1c-14.3,1.2-28.7,1.6-43.1,1.8c-14.4,0.2-28.8,0.5-43.1,0.4      c-5.8,0-12.3,0.1-17.8-2c-2.6-1-3.2-1.1-1-3.7c2.1-2.4,4.7-3.7,7.5-5.1c43.6-21,90.5-27.7,137.3-36.6c-1.7,1.4-3.2,3.1-4.6,5      c-1.4,2-0.7,5.1,0.9,6.8c8.3,8.3,20.9,7.9,31.8,7.9c14.8,0,29.5,3.6,44.2,4.7c17.2,1.4,34.5,1.2,51.8,1.4      c8.7,0.1,17.3,0.1,26,0.1c8,0,16.1,1,24-0.3c3.7-0.6,7.2-1.8,10.9-2.3c4-0.5,8.2-0.4,12.3-0.3c8.7,0.1,17.5,0.3,26.2,0.3      c17.3,0,34.6,0.1,51.9,0.1c17.1,0,34.2-0.1,51.2,1.2c16.6,1.2,32.7,4.9,49.4,4.4c8.2-0.3,16.4-0.4,24.6,0.2      c8.4,0.7,16.7,1.8,25.1,2c17.5,0.4,35.1-0.2,52.7-0.4c35.2-0.4,70.3-0.8,105.5-0.9c8.6,0,17-0.2,25.5-1.4      c8.6-1.2,17.1-2.6,25.8-3.3c17.1-1.4,33.6-4.3,50.2-8.3c17-4.1,33.9-7.5,51.2-10.1c16-2.3,31.7-6,47.5-8.9h-63.7      c-1.7,0.3-3.4,0.6-5.2,0.9c-16.9,2.9-33.3,7.8-50.1,11.2c-16.6,3.4-33.5,3.7-50.2,6.5c-17.4,2.8-34.8,1.9-52.4,1.6      c-17.2-0.2-34.5-0.4-51.7-0.5c-17.6-0.1-35.2-0.2-52.8-0.4c-17-0.1-33.8,0.2-50.7-1.5c-8.3-0.8-16.5-1.4-24.9-1.1      c-8,0.2-16.2,0.8-24.2-0.2c-16.5-2.1-32.6-4.4-49.3-5c-34-1.1-68.1,0.3-102.2-0.4c-8.2-0.2-16.6-0.7-24.7,0.5      c-3.4,0.5-6.7,1.6-10.1,2.2c-4.1,0.7-8.4,0.4-12.6,0.3c-16.8-0.6-33.6,0-50.4,0.1c-17.3,0.2-34.4,0-51.6-1.7      c-7.5-0.8-15-2.3-22.6-2.7c-5.4-0.2-10.9,0.2-16.4,0c-3.1-0.1-6.6-0.3-9.6-1.3c4.5-3.3,10.6-4.9,15.6-6.6c2-0.7,4-1.4,6-2.1      H1020c-18.4,3.7-36.6,8.3-54.5,14.3c-12.1,4.1-24.1,8.7-35.6,14.3c-7.7,3.7-15.9,11.7-13.8,21.2c2.2,9.8,16.1,11.2,24.1,11.8      c13.9,1.1,28.2,0.3,42.2,0.3c29.4,0,58.6-2.7,88-2.3c14,0.2,27.7-2.3,41.6-2.8c14.8-0.5,29.6-0.2,44.3,0.1      c15.2,0.3,30.3,0.6,45.5-0.6c14.5-1.2,28.9-3.1,43.4-4c14.8-0.9,29.6-0.5,44.4-0.3c14.2,0.2,28.3-0.6,42.5-0.6      c14.9,0,29.5,2.8,44.3,4.1c14.7,1.3,29.4,1.8,44.2,2c29.5,0.4,59.1-0.1,88.7-0.2c14.5-0.1,28.5,0.5,42.9,2.3      c14.4,1.8,29,0.8,43.5,0.6c14.9-0.2,29.6,1.3,44.5,2.2c14.7,0.9,28.8-0.2,43.4-1.3c14.8-1.1,29.7-1.2,44.6-2.1      c15-0.9,29.9-2.8,44.9-4.1c30.6-2.5,61.2-3.9,91.8-4.6c30.1-0.8,60.3-0.9,90.4-0.9c29.9,0,59.7-0.5,89.4,2.3      c60.4,5.8,120.9,11.2,181.2,18.4c15.3,1.8,30.6,3.9,45.9,6v-14.8C2215.9,1689.6,2159.7,1684.6,2103.5,1678.8z"
   id="path6" />
				<path
   class="st2"
   d="M2272,1752.2c-9.2-1.6-18.5-3.1-27.8-4.3c-27.6-3.5-55-8.2-82.5-12.4c-27.3-4.1-54.6-8.1-81.8-12.8      c-27.1-4.6-53.9-10.1-81.2-13.3c-26.1-3.1-52.4-6.7-78.8-6c-13.2,0.3-26.4,1.3-39.6,1.8c-13.7,0.5-27.3,0.8-41,1.7      c-54.8,3.5-109,12.7-163,22.3c-29.9,5.3-59,13.4-88.2,21.8c-14.2,4.1-28.5,7.8-42.7,12.1c-7.2,2.2-14.3,4.8-21.6,7      c-6.5,2-12.8,4-18.6,7.5c-5,3-0.5,10.8,4.6,7.9c5.2-3,10.8-4.5,16.5-6.2c6.6-1.9,13.2-4.2,19.8-6.1c12.7-3.6,25.5-6.7,38.2-10      c25.9-6.8,51.7-13.8,77.9-18.8c52.5-10.1,106-17.8,159.4-22.2c26.7-2.2,53.5-2.6,80.3-3.9c12.8-0.7,25.7-1.2,38.5-0.6      c13.6,0.6,27.2,2.6,40.7,4c26.7,2.9,52.8,7.4,79.2,12.2c26.5,4.8,53.1,8.9,79.8,12.8c30.1,4.4,60.1,9.5,90.2,13.6      c13.9,1.9,27.7,4.1,41.5,6.3V1752.2z"
   id="path7" />
				<path
   class="st2"
   d="M770.2,1716.2c-27,0.2-53,3.3-78.5,12.5c-14.2,5.1-28.2,10.5-42.4,15.4c-14.9,5.1-29.6,10.4-44,16.8      c-6.2,2.8-0.8,11.8,5.3,9.1c25.1-10.8,51.8-17.9,77.5-27.3c11.7-4.3,23.6-7.9,35.8-10.2c13.3-2.5,26.9-2.9,40.4-3.1      c28.2-0.3,56.6-0.7,84.7,0c13.5,0.3,26.5,1.8,39.7,4.6c13,2.7,25.9,5.4,39.1,6.8c15.8,1.7,31.4,4.4,47,6.9      c5.9,0.9,11.4,2.6,17.2,4.1c5.6,1.5,11.3,2.8,16.8,0.5c4.7-1.9,6.1-9.6,0-10.9c-10.1-2.2-19.9-5.7-30.2-7.3      c-14-2.2-27.9-4.6-42-6.4c-13.6-1.7-27-3.6-40.5-6.4c-13.7-2.8-27.2-5-41.2-5.5C826.8,1715,798.4,1716,770.2,1716.2z"
   id="path8" />
			</g>
			<rect
   y="1767.3"
   class="st3"
   width="2272"
   height="104.7"
   id="rect8" />
			<rect
   y="1740"
   class="st4"
   width="2272"
   height="38.3"
   id="rect9" />
		</g>
		<rect
   x="0"
   class="st5"
   width="2272"
   height="1539.8"
   id="rect10" />
		<g
   id="g51">
			<rect
   x="67.6"
   y="47.9"
   class="st6"
   width="2130.6"
   height="1425.5"
   id="rect11" />
			<rect
   x="67.6"
   y="47.9"
   class="st1"
   width="2130.6"
   height="1443.9"
   id="rect12" />
			<rect
   x="85.8"
   y="77.6"
   class="st3"
   width="2087.9"
   height="1384.6"
   id="rect13" />
			<rect
   x="108.9"
   y="92.9"
   class="st7"
   width="2041.8"
   height="1354"
   id="rect14" />
			<g
   id="g50">
				<rect
   x="108.9"
   y="1407.6"
   class="st7"
   width="2041.8"
   height="39.3"
   id="rect15" />
				<rect
   x="108.9"
   y="1370"
   class="st8"
   width="2041.8"
   height="40.6"
   id="rect16" />
				<rect
   x="108.9"
   y="1332.5"
   class="st9"
   width="2041.8"
   height="41.9"
   id="rect17" />
				<rect
   x="108.9"
   y="1294.9"
   class="st10"
   width="2041.8"
   height="43.2"
   id="rect18" />
				<rect
   x="108.9"
   y="1257.3"
   class="st11"
   width="2041.8"
   height="44.4"
   id="rect19" />
				<rect
   x="108.9"
   y="1219.8"
   class="st12"
   width="2041.8"
   height="45.7"
   id="rect20" />
				<rect
   x="108.9"
   y="1182.2"
   class="st13"
   width="2041.8"
   height="47"
   id="rect21" />
				<rect
   x="108.9"
   y="1144.6"
   class="st14"
   width="2041.8"
   height="48.2"
   id="rect22" />
				<rect
   x="108.9"
   y="1107.1"
   class="st15"
   width="2041.8"
   height="49.5"
   id="rect23" />
				<rect
   x="108.9"
   y="1069.5"
   class="st16"
   width="2041.8"
   height="50.8"
   id="rect24" />
				<rect
   x="108.9"
   y="1032"
   class="st17"
   width="2041.8"
   height="52.1"
   id="rect25" />
				<rect
   x="108.9"
   y="994.4"
   class="st18"
   width="2041.8"
   height="53.3"
   id="rect26" />
				<rect
   x="108.9"
   y="956.8"
   class="st19"
   width="2041.8"
   height="54.6"
   id="rect27" />
				<rect
   x="108.9"
   y="919.3"
   class="st20"
   width="2041.8"
   height="55.9"
   id="rect28" />
				<rect
   x="108.9"
   y="881.7"
   class="st21"
   width="2041.8"
   height="57.2"
   id="rect29" />
				<rect
   x="108.9"
   y="844.1"
   class="st22"
   width="2041.8"
   height="58.4"
   id="rect30" />
				<rect
   x="108.9"
   y="806.6"
   class="st23"
   width="2041.8"
   height="59.7"
   id="rect31" />
				<rect
   x="108.9"
   y="769"
   class="st24"
   width="2041.8"
   height="61"
   id="rect32" />
				<rect
   x="108.9"
   y="731.4"
   class="st25"
   width="2041.8"
   height="62.3"
   id="rect33" />
				<rect
   x="108.9"
   y="693.9"
   class="st26"
   width="2041.8"
   height="63.5"
   id="rect34" />
				<rect
   x="108.9"
   y="656.3"
   class="st27"
   width="2041.8"
   height="64.8"
   id="rect35" />
				<rect
   x="108.9"
   y="618.8"
   class="st28"
   width="2041.8"
   height="66.1"
   id="rect36" />
				<rect
   x="108.9"
   y="581.2"
   class="st29"
   width="2041.8"
   height="67.4"
   id="rect37" />
				<rect
   x="108.9"
   y="543.6"
   class="st30"
   width="2041.8"
   height="68.6"
   id="rect38" />
				<rect
   x="108.9"
   y="506.1"
   class="st31"
   width="2041.8"
   height="69.9"
   id="rect39" />
				<rect
   x="108.9"
   y="468.5"
   class="st32"
   width="2041.8"
   height="71.2"
   id="rect40" />
				<rect
   x="108.9"
   y="430.9"
   class="st33"
   width="2041.8"
   height="72.5"
   id="rect41" />
				<rect
   x="108.9"
   y="393.4"
   class="st34"
   width="2041.8"
   height="73.7"
   id="rect42" />
				<rect
   x="108.9"
   y="355.8"
   class="st35"
   width="2041.8"
   height="75"
   id="rect43" />
				<rect
   x="108.9"
   y="318.3"
   class="st36"
   width="2041.8"
   height="76.3"
   id="rect44" />
				<rect
   x="108.9"
   y="280.7"
   class="st37"
   width="2041.8"
   height="77.6"
   id="rect45" />
				<rect
   x="108.9"
   y="243.1"
   class="st38"
   width="2041.8"
   height="78.8"
   id="rect46" />
				<rect
   x="108.9"
   y="205.6"
   class="st39"
   width="2041.8"
   height="80.1"
   id="rect47" />
				<rect
   x="108.9"
   y="168"
   class="st40"
   width="2041.8"
   height="81.4"
   id="rect48" />
				<rect
   x="108.9"
   y="130.4"
   class="st41"
   width="2041.8"
   height="82.7"
   id="rect49" />
				<rect
   x="108.9"
   y="92.9"
   class="st42"
   width="2041.8"
   height="83.9"
   id="rect50" />
			</g>
		</g>
		<g
   id="g55">
			<rect
   x="0"
   y="1491.9"
   class="st43"
   width="2272"
   height="74.1"
   id="rect51" />
			<g
   id="g54">
				<path
   class="st44"
   d="M1274.9,1503.1h264.8c8.7,0,16-5.7,18.5-13.5h-307.7C1255.5,1497.8,1264.7,1503.1,1274.9,1503.1z"
   id="path51" />
				<g
   id="g53">
					<path
   class="st0"
   d="M1538.8,1439.7h-265.4c-15.7,0-28.4,13-27.8,28.9c0.5,15.1,13.4,26.8,28.5,26.8h264.8       c10.7,0,19.4-8.7,19.4-19.4v-17C1558.2,1448.3,1549.5,1439.7,1538.8,1439.7z"
   id="path52" />
					<path
   class="st45"
   d="M1245.5,1467c0,0.5,0,1,0,1.6c0.5,15.1,13.4,26.8,28.5,26.8h264.8c10.7,0,19.4-8.7,19.4-19.4v-9H1245.5z"
   id="path53" />
				</g>
			</g>
			<rect
   x="0"
   y="1528.9"
   class="st44"
   width="2272"
   height="37"
   id="rect54" />
		</g>
		<g
   id="g56">
			<path
   class="st46"
   d="M2038.9,1363h-382.3c-31.6,0-57.3,25.6-57.3,57.3v71.6h496.9v-71.6C2096.1,1388.7,2070.5,1363,2038.9,1363z     "
   id="path55" />
			<rect
   x="1599.2"
   y="1427.4"
   class="st47"
   width="496.9"
   height="64.4"
   id="rect55" />
			<rect
   x="1599.2"
   y="1427.4"
   class="st48"
   width="168.1"
   height="64.4"
   id="rect56" />
		</g>
		<g
   id="g57">
			
			<path
   class="st49"
   d="M 0,1499.5 C 0,0 0,0 0,1499.5 Z m 43.3,-54 C 0,0 0,0 43.3,1445.5 Z"
   id="path57"
   sodipodi:nodetypes="cccc" />
		</g>
	</g>
</g>
</svg>
